<?xml version="1.0" encoding="utf-8"?>
<!-- Generator: Adobe Illustrator 19.0.0, SVG Export Plug-In . SVG Version: 6.00 Build 0)  -->
<svg version="1.1" id="Layer_1" xmlns="http://www.w3.org/2000/svg" xmlns:xlink="http://www.w3.org/1999/xlink" x="0px" y="0px"
	 viewBox="120 454.6 799.5 53.4" style="enable-background:new 120 454.6 799.5 53.4;" xml:space="preserve">
<style type="text/css">
	.st0{fill:#FFFFFF;}
</style>
<g id="XMLID_180_">
	<g id="XMLID_205_">
		<g id="XMLID_735_">
			<path id="XMLID_740_" class="st0" d="M240.7,503.5v-43.7c0-2.3,1.8-4.1,4.1-4.1h0.1c0,0,0,0,0.1,0h24c2.1,0,4.1,1.8,4.1,4.1
				c0,2.3-1.9,4.2-4.1,4.2h-20.1v13.6H261c2.2,0,4.1,1.9,4.1,4.1c0,2.3-1.9,4.2-4.1,4.2h-12.1v13.6H269c2.1,0,4.1,1.9,4.1,4.1
				c0,2.2-1.9,4.1-4.1,4.1h-24c-0.1,0-0.1-0.1-0.1-0.1l-0.1,0.1C242.4,507.5,240.7,505.7,240.7,503.5z"/>
			<path id="XMLID_738_" class="st0" d="M297.2,503.5c0,2.2-1.8,4.1-4,4.1c-2.3,0-4.1-1.9-4.1-4.1v-43c0,0,0,0,0-0.1
				c-0.1-1.3,0.5-2.6,1.6-3.4c1.9-1.3,4.4-0.9,5.6,0.9l23.9,33.1v-30.5c0-2.1,1.8-4,4-4c2.2,0,4.1,1.9,4.1,4v43
				c0,2.2-1.9,4.1-4.1,4.1c-1.2,0-2.3-0.6-3-1.5c-0.1-0.1-0.3-0.3-0.4-0.4l-23.7-32.9L297.2,503.5L297.2,503.5z"/>
			<path id="XMLID_737_" class="st0" d="M141.8,455.7c-10.9,2.1-19.6,11.1-21.4,22c-2.2,13.2,5.2,25.1,16.3,29.7
				c2.5,1.1,5.3-1,5.3-3.7l0,0c0-1.6-0.8-3-2.3-3.6c-8-3.3-13.3-11.8-11.6-21.3c1.4-7.5,7.3-13.6,14.8-15.2
				c12.7-2.6,23.7,6.8,23.7,18.8c0,8.2-5.1,15-12.2,17.9c-1.5,0.6-2.3,2-2.3,3.6l0,0c0,2.9,3,4.8,5.6,3.6
				c9.8-4.1,16.7-13.8,16.7-25.1C174.5,465.6,159.2,452.3,141.8,455.7z"/>
			<path id="XMLID_69_" class="st0" d="M454.5,455.7c-10.9,2.1-19.6,11.1-21.4,22c-2.2,13.2,5.2,25.1,16.3,29.7
				c2.5,1.1,5.3-1,5.3-3.7l0,0c0-1.6-0.8-3-2.3-3.6c-7.9-3.4-13.2-11.9-11.5-21.4c1.4-7.5,7.3-13.7,14.8-15.2
				c12.7-2.6,23.7,6.8,23.7,18.8c0,8.2-5.1,15-12.2,17.9c-1.5,0.6-2.3,2-2.3,3.6l0,0c0,2.9,3,4.8,5.6,3.6
				c9.8-4.1,16.7-13.8,16.7-25.1C487.2,465.6,472,452.3,454.5,455.7z"/>
			<path id="XMLID_70_" class="st0" d="M635.1,455.7c-10.9,2.1-19.6,11.1-21.4,22c-2.2,13.2,5.2,25.1,16.3,29.7
				c2.5,1.1,5.3-1,5.3-3.7l0,0c0-1.6-0.8-3-2.3-3.6c-7.9-3.4-13.2-11.9-11.5-21.4c1.4-7.5,7.3-13.7,14.8-15.2
				c12.7-2.6,23.7,6.8,23.7,18.9c0,8.2-5.1,15-12.2,17.9c-1.5,0.6-2.3,2-2.3,3.6l0,0c0,2.9,3,4.8,5.6,3.6
				c9.8-4.1,16.7-13.8,16.7-25.1C667.8,465.6,652.6,452.3,635.1,455.7z"/>
			<path id="XMLID_736_" class="st0" d="M228.2,472.4c0-9.1-7.4-16.6-16.5-16.6l0,0h-12.8h-1.1h-0.5h-0.1c-2.2,0-4.1,1.8-4.1,4.1
				v43.7c0,2.2,1.9,4.1,4.1,4.1c2.3,0,4.1-1.9,4.1-4.1v-14.5l0,0v-8.2v-2.7V464h10.4l0,0c4.6,0,8.3,3.8,8.3,8.4c0,4.1-3,7.6-6.9,8.3
				c0,0-1.6,0.3-2.5,1.4c-0.6,0.7-1,1.7-1,2.7c0,2.1,1.8,4.1,4.1,4.1l0,0C221.8,487.8,228.2,480.9,228.2,472.4z"/>
		</g>
		<g id="XMLID_666_">
			<path id="XMLID_733_" class="st0" d="M510.6,503.5c0,2.2-1.8,4.1-4,4.1c-2.3,0-4.1-1.9-4.1-4.1v-43c0,0,0,0,0-0.1
				c-0.1-1.3,0.5-2.6,1.6-3.4c1.9-1.3,4.4-0.9,5.6,0.9l23.9,33.1v-30.5c0-2.1,1.8-4,4-4c2.2,0,4.1,1.9,4.1,4v43
				c0,2.2-1.9,4.1-4.1,4.1c-1.2,0-2.3-0.6-3-1.5c-0.1-0.1-0.3-0.3-0.4-0.4l-23.7-32.9L510.6,503.5L510.6,503.5z"/>
			<path id="XMLID_731_" class="st0" d="M562.3,494.7c1.3-1.6,3.8-1.9,5.4-0.5c3.3,2.7,8.9,5.8,14.1,5.7c3.7,0,7-1.1,9.3-2.7
				c2.2-1.6,3.2-3.5,3.2-5.3c0-1-0.2-1.6-0.7-2.4c-0.4-0.7-1.1-1.5-2.2-2.2c-2.1-1.4-5.8-2.7-10.1-3.5h-0.1
				c-3.5-0.7-6.7-1.6-9.6-2.9c-2.8-1.3-5.3-3.2-6.9-5.8c-1.1-1.8-1.7-3.9-1.7-6.1c0-4.4,2.5-8.3,5.9-10.8c3.5-2.5,8-3.9,12.8-3.9
				c7.1,0,12.4,3.5,16.1,5.9c1.7,1.2,2.2,3.6,1,5.3c-1.1,1.8-3.5,2.3-5.3,1.1c-3.8-2.5-7.4-4.7-11.9-4.7c-3.3,0-6.3,1-8.3,2.5
				s-2.8,3.1-2.8,4.7c0,0.9,0.1,1.5,0.5,2.1c0.4,0.6,1,1.3,2,1.9c1.9,1.3,5.3,2.5,9.3,3.3h0.1c3.8,0.7,7.3,1.7,10.2,3.1
				c3,1.5,5.7,3.4,7.4,6.1c1.1,1.8,1.8,4,1.8,6.3c0,4.7-2.7,8.8-6.4,11.5c-3.6,2.7-8.4,4.2-13.7,4.2c-8-0.1-14.7-4.1-19-7.4
				C561.3,498.7,561,496.3,562.3,494.7z"/>
			<path id="XMLID_729_" class="st0" d="M765.9,463.9h-11.8v39.5c0,2.3-1.8,4.1-4.1,4.1c-2.2,0-4.1-1.8-4.1-4.1v-39.5h-11.7
				c-2.3,0-4.1-1.9-4.1-4.2c0-2.3,1.8-4.1,4.1-4.1h31.6c2.2,0,4.1,1.8,4.1,4.1C769.9,462,768.1,463.9,765.9,463.9z"/>
			<path id="XMLID_727_" class="st0" d="M787.1,459.8c0-2.3,1.8-4.1,4.1-4.1c2.2,0,4.1,1.8,4.1,4.1v43.7c0,2.3-1.9,4.1-4.1,4.1
				c-2.3,0-4.1-1.8-4.1-4.1V459.8z"/>
			<path id="XMLID_725_" class="st0" d="M835,507.5c-11.9,0-21.4-9.6-21.4-21.4v-26.3c0-2.3,1.8-4.1,4.1-4.1c2.2,0,4.1,1.8,4.1,4.1
				v26.4c0,7.3,5.9,13.2,13.2,13.2s13.2-5.9,13.2-13.2v-26.4c0-2.3,1.9-4.1,4.1-4.1c2.3,0,4.1,1.8,4.1,4.1v26.4
				C856.4,497.9,846.8,507.5,835,507.5z"/>
			<path id="XMLID_723_" class="st0" d="M919.1,459.8v43.7c0,2.2-1.9,4.1-4.1,4.1c-2.3,0-4.1-1.9-4.1-4.1v-31.2l-10.7,14.8
				c-0.8,1.1-2,1.7-3.3,1.7h-0.1h-0.1c-1.3,0-2.6-0.6-3.4-1.7l-10.6-14.8v31.2c0,2.2-1.9,4.1-4.1,4.1c-2.2,0-4.1-1.9-4.1-4.1v-43.7
				c0-2.2,1.9-4.1,4.1-4.1c0.1,0,0.1,0,0.2,0c1.2,0,2.5,0.6,3.3,1.7l14.7,20.4l14.7-20.4c0.8-1.1,2-1.7,3.3-1.7c0,0,0,0,0.1,0
				C917.2,455.8,919.1,457.6,919.1,459.8z"/>
			<path id="XMLID_722_" class="st0" d="M374.2,486.1c2.1,10.6,11,18.9,21.6,20.3c9.2,1.2,17.6-2.4,23-8.7c2.1-2.5,0.4-6.3-2.8-6.3
				l0,0c-1.1,0-2.2,0.6-2.9,1.4c-4,4.6-10.1,7.2-16.9,6.1c-7.2-1.2-13.1-6.9-14.6-14c-2.5-11.8,6.5-22.2,17.8-22.2
				c5.5,0,10.4,2.5,13.7,6.3c0.8,0.9,1.8,1.4,3,1.4l0,0c3.1,0,5-3.7,3-6c-4.7-5.6-11.7-9.2-19.6-9.2
				C383.5,455.2,371,469.6,374.2,486.1z"/>
			<path id="XMLID_721_" class="st0" d="M711.7,488.7c-0.5-0.8-0.2-1.9,0.6-2.4c4.3-3,7.2-8,7.2-13.6c0-9.1-7.4-16.6-16.5-16.6l0,0
				h-12.9H689h-0.5h-0.1c-2.2,0-4.1,1.8-4.1,4.1v43.7c0,2.2,1.9,4.1,4.1,4.1c2.3,0,4.1-1.9,4.1-4.1v-14.5l0,0v-8.2v-2.7v-14.2h10.4
				l0,0c4.6,0,8.3,3.8,8.3,8.4c0,3.4-2,6.3-4.9,7.7c-0.6,0.3-2.8,0.7-3.5,1.2c-1.3,0.8-2,2.1-2,3.5c0,0,0,0,0,0.1l0,0
				c0,0.7,0.1,1.4,0.5,2l10.5,18.7c0.8,1.3,2.1,2.1,3.6,2.1c0.7,0,1.4-0.2,2-0.5c2-1.1,2.6-3.6,1.5-5.6L711.7,488.7z"/>
		</g>
	</g>
</g>
</svg>
