<?xml version="1.0" encoding="utf-8"?>
<!-- Generator: Adobe Illustrator 19.0.0, SVG Export Plug-In . SVG Version: 6.00 Build 0)  -->
<svg version="1.0" id="Layer_1" xmlns="http://www.w3.org/2000/svg" xmlns:xlink="http://www.w3.org/1999/xlink" x="0px" y="0px"
	 viewBox="0 0 799.5 53.4" enable-background="new 0 0 799.5 53.4" xml:space="preserve">
<g id="XMLID_180_">
	<g id="XMLID_205_">
		<g id="XMLID_735_">
			<path id="XMLID_740_" fill="#FFFFFF" d="M120.7,47.9V4.2c0-2.3,1.8-4.1,4.1-4.1h0.1c0,0,0,0,0.1,0h24c2.1,0,4.1,1.8,4.1,4.1
				s-1.9,4.2-4.1,4.2h-20.1V22H141c2.2,0,4.1,1.9,4.1,4.1c0,2.3-1.9,4.2-4.1,4.2h-12.1v13.6H149c2.1,0,4.1,1.9,4.1,4.1
				c0,2.2-1.9,4.1-4.1,4.1h-24c-0.1,0-0.1-0.1-0.1-0.1l-0.1,0.1C122.4,51.9,120.7,50.1,120.7,47.9z"/>
			<path id="XMLID_738_" fill="#FFFFFF" d="M177.2,47.9c0,2.2-1.8,4.1-4,4.1c-2.3,0-4.1-1.9-4.1-4.1v-43c0,0,0,0,0-0.1
				c-0.1-1.3,0.5-2.6,1.6-3.4c1.9-1.3,4.4-0.9,5.6,0.9l23.9,33.1V4.9c0-2.1,1.8-4,4-4c2.2,0,4.1,1.9,4.1,4v43c0,2.2-1.9,4.1-4.1,4.1
				c-1.2,0-2.3-0.6-3-1.5c-0.1-0.1-0.3-0.3-0.4-0.4l-23.7-32.9L177.2,47.9L177.2,47.9z"/>
			<path id="XMLID_737_" fill="#FFFFFF" d="M21.8,0.1C10.9,2.2,2.2,11.2,0.4,22.1c-2.2,13.2,5.2,25.1,16.3,29.7
				c2.5,1.1,5.3-1,5.3-3.7l0,0c0-1.6-0.8-3-2.3-3.6C11.7,41.2,6.4,32.7,8.1,23.2C9.5,15.7,15.4,9.6,22.9,8
				c12.7-2.6,23.7,6.8,23.7,18.8c0,8.2-5.1,15-12.2,17.9c-1.5,0.6-2.3,2-2.3,3.6l0,0c0,2.9,3,4.8,5.6,3.6
				c9.8-4.1,16.7-13.8,16.7-25.1C54.5,10,39.2-3.3,21.8,0.1z"/>
			<path id="XMLID_69_" fill="#FFFFFF" d="M334.5,0.1c-10.9,2.1-19.6,11.1-21.4,22c-2.2,13.2,5.2,25.1,16.3,29.7
				c2.5,1.1,5.3-1,5.3-3.7l0,0c0-1.6-0.8-3-2.3-3.6c-7.9-3.4-13.2-11.9-11.5-21.4c1.4-7.5,7.3-13.7,14.8-15.2
				c12.7-2.6,23.7,6.8,23.7,18.8c0,8.2-5.1,15-12.2,17.9c-1.5,0.6-2.3,2-2.3,3.6l0,0c0,2.9,3,4.8,5.6,3.6
				c9.8-4.1,16.7-13.8,16.7-25.1C367.2,10,352-3.3,334.5,0.1z"/>
			<path id="XMLID_70_" fill="#FFFFFF" d="M515.1,0.1c-10.9,2.1-19.6,11.1-21.4,22c-2.2,13.2,5.2,25.1,16.3,29.7
				c2.5,1.1,5.3-1,5.3-3.7l0,0c0-1.6-0.8-3-2.3-3.6c-7.9-3.4-13.2-11.9-11.5-21.4c1.4-7.5,7.3-13.7,14.8-15.2
				C529,5.3,540,14.7,540,26.8c0,8.2-5.1,15-12.2,17.9c-1.5,0.6-2.3,2-2.3,3.6l0,0c0,2.9,3,4.8,5.6,3.6c9.8-4.1,16.7-13.8,16.7-25.1
				C547.8,10,532.6-3.3,515.1,0.1z"/>
			<path id="XMLID_736_" fill="#FFFFFF" d="M108.2,16.8c0-9.1-7.4-16.6-16.5-16.6l0,0H78.9h-1.1h-0.5h-0.1c-2.2,0-4.1,1.8-4.1,4.1
				V48c0,2.2,1.9,4.1,4.1,4.1c2.3,0,4.1-1.9,4.1-4.1V33.5l0,0v-8.2v-2.7V8.4h10.4l0,0c4.6,0,8.3,3.8,8.3,8.4c0,4.1-3,7.6-6.9,8.3
				c0,0-1.6,0.3-2.5,1.4c-0.6,0.7-1,1.7-1,2.7c0,2.1,1.8,4.1,4.1,4.1l0,0C101.8,32.2,108.2,25.3,108.2,16.8z"/>
		</g>
		<g id="XMLID_666_">
			<path id="XMLID_733_" fill="#FFFFFF" d="M390.6,47.9c0,2.2-1.8,4.1-4,4.1c-2.3,0-4.1-1.9-4.1-4.1v-43c0,0,0,0,0-0.1
				c-0.1-1.3,0.5-2.6,1.6-3.4c1.9-1.3,4.4-0.9,5.6,0.9l23.9,33.1V4.9c0-2.1,1.8-4,4-4s4.1,1.9,4.1,4v43c0,2.2-1.9,4.1-4.1,4.1
				c-1.2,0-2.3-0.6-3-1.5c-0.1-0.1-0.3-0.3-0.4-0.4l-23.7-32.9L390.6,47.9L390.6,47.9z"/>
			<path id="XMLID_731_" fill="#FFFFFF" d="M442.3,39.1c1.3-1.6,3.8-1.9,5.4-0.5c3.3,2.7,8.9,5.8,14.1,5.7c3.7,0,7-1.1,9.3-2.7
				c2.2-1.6,3.2-3.5,3.2-5.3c0-1-0.2-1.6-0.7-2.4c-0.4-0.7-1.1-1.5-2.2-2.2c-2.1-1.4-5.8-2.7-10.1-3.5h-0.1
				c-3.5-0.7-6.7-1.6-9.6-2.9c-2.8-1.3-5.3-3.2-6.9-5.8c-1.1-1.8-1.7-3.9-1.7-6.1c0-4.4,2.5-8.3,5.9-10.8c3.5-2.5,8-3.9,12.8-3.9
				c7.1,0,12.4,3.5,16.1,5.9c1.7,1.2,2.2,3.6,1,5.3c-1.1,1.8-3.5,2.3-5.3,1.1c-3.8-2.5-7.4-4.7-11.9-4.7c-3.3,0-6.3,1-8.3,2.5
				c-2,1.5-2.8,3.1-2.8,4.7c0,0.9,0.1,1.5,0.5,2.1c0.4,0.6,1,1.3,2,1.9c1.9,1.3,5.3,2.5,9.3,3.3h0.1c3.8,0.7,7.3,1.7,10.2,3.1
				c3,1.5,5.7,3.4,7.4,6.1c1.1,1.8,1.8,4,1.8,6.3c0,4.7-2.7,8.8-6.4,11.5c-3.6,2.7-8.4,4.2-13.7,4.2c-8-0.1-14.7-4.1-19-7.4
				C441.3,43.1,441,40.7,442.3,39.1z"/>
			<path id="XMLID_729_" fill="#FFFFFF" d="M645.9,8.3h-11.8v39.5c0,2.3-1.8,4.1-4.1,4.1c-2.2,0-4.1-1.8-4.1-4.1V8.3h-11.7
				c-2.3,0-4.1-1.9-4.1-4.2s1.8-4.1,4.1-4.1h31.6c2.2,0,4.1,1.8,4.1,4.1S648.1,8.3,645.9,8.3z"/>
			<path id="XMLID_727_" fill="#FFFFFF" d="M667.1,4.2c0-2.3,1.8-4.1,4.1-4.1c2.2,0,4.1,1.8,4.1,4.1v43.7c0,2.3-1.9,4.1-4.1,4.1
				c-2.3,0-4.1-1.8-4.1-4.1V4.2z"/>
			<path id="XMLID_725_" fill="#FFFFFF" d="M715,51.9c-11.9,0-21.4-9.6-21.4-21.4V4.2c0-2.3,1.8-4.1,4.1-4.1c2.2,0,4.1,1.8,4.1,4.1
				v26.4c0,7.3,5.9,13.2,13.2,13.2s13.2-5.9,13.2-13.2V4.2c0-2.3,1.9-4.1,4.1-4.1c2.3,0,4.1,1.8,4.1,4.1v26.4
				C736.4,42.3,726.8,51.9,715,51.9z"/>
			<path id="XMLID_723_" fill="#FFFFFF" d="M799.1,4.2v43.7c0,2.2-1.9,4.1-4.1,4.1c-2.3,0-4.1-1.9-4.1-4.1V16.7l-10.7,14.8
				c-0.8,1.1-2,1.7-3.3,1.7h-0.1h-0.1c-1.3,0-2.6-0.6-3.4-1.7l-10.6-14.8v31.2c0,2.2-1.9,4.1-4.1,4.1c-2.2,0-4.1-1.9-4.1-4.1V4.2
				c0-2.2,1.9-4.1,4.1-4.1c0.1,0,0.1,0,0.2,0c1.2,0,2.5,0.6,3.3,1.7l14.7,20.4l14.7-20.4c0.8-1.1,2-1.7,3.3-1.7c0,0,0,0,0.1,0
				C797.2,0.2,799.1,2,799.1,4.2z"/>
			<path id="XMLID_722_" fill="#FFFFFF" d="M254.2,30.5c2.1,10.6,11,18.9,21.6,20.3c9.2,1.2,17.6-2.4,23-8.7
				c2.1-2.5,0.4-6.3-2.8-6.3l0,0c-1.1,0-2.2,0.6-2.9,1.4c-4,4.6-10.1,7.2-16.9,6.1c-7.2-1.2-13.1-6.9-14.6-14
				c-2.5-11.8,6.5-22.2,17.8-22.2c5.5,0,10.4,2.5,13.7,6.3c0.8,0.9,1.8,1.4,3,1.4l0,0c3.1,0,5-3.7,3-6c-4.7-5.6-11.7-9.2-19.6-9.2
				C263.5-0.4,251,14,254.2,30.5z"/>
			<path id="XMLID_721_" fill="#FFFFFF" d="M591.7,33.1c-0.5-0.8-0.2-1.9,0.6-2.4c4.3-3,7.2-8,7.2-13.6c0-9.1-7.4-16.6-16.5-16.6
				l0,0h-12.9H569h-0.5h-0.1c-2.2,0-4.1,1.8-4.1,4.1v43.7c0,2.2,1.9,4.1,4.1,4.1c2.3,0,4.1-1.9,4.1-4.1V33.8l0,0v-8.2v-2.7V8.7h10.4
				l0,0c4.6,0,8.3,3.8,8.3,8.4c0,3.4-2,6.3-4.9,7.7c-0.6,0.3-2.8,0.7-3.5,1.2c-1.3,0.8-2,2.1-2,3.5c0,0,0,0,0,0.1l0,0
				c0,0.7,0.1,1.4,0.5,2l10.5,18.7c0.8,1.3,2.1,2.1,3.6,2.1c0.7,0,1.4-0.2,2-0.5c2-1.1,2.6-3.6,1.5-5.6L591.7,33.1z"/>
		</g>
	</g>
</g>
</svg>
