<?xml version="1.0" encoding="utf-8"?>
<!-- Generator: Adobe Illustrator 19.0.0, SVG Export Plug-In . SVG Version: 6.00 Build 0)  -->
<svg version="1.0" id="Layer_1" xmlns="http://www.w3.org/2000/svg" xmlns:xlink="http://www.w3.org/1999/xlink" x="0px" y="0px"
	 viewBox="0 0 127.5 112.2" enable-background="new 0 0 127.5 112.2" xml:space="preserve">
<g id="XMLID_180_">
	<g id="XMLID_181_">
		<g id="XMLID_187_">
			<path id="XMLID_188_" fill="#FFFFFF" d="M40.1,28c5-2.8,10.4-4.2,15.7-4.2l2.2-8.1c-0.7,0-1.3-0.1-2-0.1
				c-6.8,0-13.8,1.7-20.1,5.4C16.6,32.1,10,56.9,21.1,76.2c5.4,9.3,14.1,16,24.5,18.8s21.3,1.4,30.6-4c6.7-3.9,12-9.5,15.5-16.2
				l-8.1-2.2C80.8,77.2,76.9,81.2,72,84c-15.5,8.8-35.2,3.4-44-12C19.2,56.6,24.6,36.9,40.1,28z"/>
		</g>
	</g>
</g>
</svg>
