<?xml version="1.0" encoding="utf-8"?>
<!-- Generator: Adobe Illustrator 19.0.0, SVG Export Plug-In . SVG Version: 6.00 Build 0)  -->
<svg version="1.0" id="Layer_1" xmlns="http://www.w3.org/2000/svg" xmlns:xlink="http://www.w3.org/1999/xlink" x="0px" y="0px"
	 viewBox="0 0 127.5 112.2" enable-background="new 0 0 127.5 112.2" xml:space="preserve">
<g id="XMLID_180_">
	<g id="XMLID_181_">
		<g id="XMLID_187_">
			<path id="XMLID_189_" fill="#FFFFFF" d="M99.1,76.9C95,85.5,88.4,92.6,80,97.5c-7.4,4.3-15.5,6.4-23.8,6.4
				c-4.2,0-8.3-0.5-12.5-1.7c-12.3-3.3-22.6-11.2-29-22.3c-13.2-22.8-5.3-52,17.5-65.2c8.6-4.9,18.2-7.1,27.9-6.2l2.2-8.1
				c-11.4-1.3-23.3,0.9-34,7C1.4,22.7-7.9,57,7.4,83.9c15.4,26.9,49.7,36.3,76.5,21c10.7-6.1,18.6-15.3,23.3-25.8L99.1,76.9z"/>
		</g>
	</g>
</g>
</svg>
