<?xml version="1.0" encoding="utf-8"?>
<!-- Generator: Adobe Illustrator 19.0.0, SVG Export Plug-In . SVG Version: 6.00 Build 0)  -->
<svg version="1.0" id="Layer_1" xmlns="http://www.w3.org/2000/svg" xmlns:xlink="http://www.w3.org/1999/xlink" x="0px" y="0px"
	 viewBox="0 0 63.9 54.9" enable-background="new 0 0 63.9 54.9" xml:space="preserve">
<g id="XMLID_180_">
	<g id="XMLID_181_">
		<path id="XMLID_184_" fill="#FFFFFF" d="M20.4,29.6c2,3.5,3.2,7.2,3.8,10.9c6,0.5,13.9-1.6,23.1-6.8c17.4-10,16.7-29,16.7-29
			S48-5.6,30.6,4.3c-9.2,5.3-15,11-17.6,16.4C15.9,23.1,18.5,26.1,20.4,29.6z M43.5,9.5c2.9-1.6,6.5-0.6,8.1,2.2
			c1.6,2.9,0.6,6.5-2.2,8.1c-2.9,1.6-6.5,0.6-8.1-2.2C39.6,14.8,40.6,11.2,43.5,9.5z"/>
		<path id="XMLID_183_" fill="#FFFFFF" d="M24.4,8.3C16.9,7.7,8.2,9.6,0,14.3c3.7,0.9,7.2,2.5,10.4,4.6C13,15.7,17.4,12.2,24.4,8.3z
			"/>
		<path id="XMLID_182_" fill="#FFFFFF" d="M40.8,37c-6,3.4-11.4,6-16.2,6.7c0.2,3.8-0.2,7.7-1.3,11.3C31.4,50.1,37.5,43.7,40.8,37z"
			/>
	</g>
</g>
</svg>
