<?xml version="1.0" encoding="utf-8"?>
<!-- Generator: Adobe Illustrator 19.0.0, SVG Export Plug-In . SVG Version: 6.00 Build 0)  -->
<svg version="1.1" id="Layer_1" xmlns="http://www.w3.org/2000/svg" xmlns:xlink="http://www.w3.org/1999/xlink" x="0px" y="0px"
	 viewBox="58.7 -252.4 60.5 47" style="enable-background:new 58.7 -252.4 60.5 47;" xml:space="preserve">
<style type="text/css">
	.st0{fill:#FFFFFF;}
</style>
<g id="XMLID_180_">
	<g id="XMLID_181_">
		<path id="XMLID_184_" class="st0" d="M68.9-229c0,4-0.8,7.9-2.1,11.4c5,3.4,12.9,5.5,23.5,5.5c20.1-0.1,28.9-17,28.9-17
			S110.3-246,90.3-246c-10.6,0.1-18.5,2.2-23.5,5.6C68.2-236.9,68.9-233,68.9-229z M98.9-235.1c3.3,0,6,2.7,6,5.9c0,3.3-2.7,6-5.9,6
			c-3.3,0-6-2.7-6-5.9C92.9-232.4,95.6-235,98.9-235.1z"/>
		<path id="XMLID_183_" class="st0" d="M82.9-245.6c-6.2-4.2-14.8-6.9-24.2-6.9c2.8,2.6,5,5.7,6.8,9.2
			C69.3-244.8,74.9-245.6,82.9-245.6z"/>
		<path id="XMLID_182_" class="st0" d="M83-212.5c-6.9,0-12.9-0.4-17.4-2.2c-1.7,3.4-4,6.6-6.7,9.2C68.3-205.7,76.8-208.2,83-212.5z
			"/>
	</g>
</g>
</svg>
