<?xml version="1.0" encoding="utf-8"?>
<!-- Generator: Adobe Illustrator 19.0.0, SVG Export Plug-In . SVG Version: 6.00 Build 0)  -->
<svg version="1.1" id="Layer_1" xmlns="http://www.w3.org/2000/svg" xmlns:xlink="http://www.w3.org/1999/xlink" x="0px" y="0px"
	 viewBox="0 0 66 60" style="enable-background:new 0 0 66 60;" xml:space="preserve">
<style type="text/css">
	.st0{fill:#444444;}
</style>
<g id="XMLID_1_">
	<path id="XMLID_15_" class="st0" d="M33,1.5C17.3,1.5,4.5,14.3,4.5,30S17.3,58.5,33,58.5S61.5,45.7,61.5,30S48.7,1.5,33,1.5z
		 M33,56.5C18.4,56.5,6.5,44.6,6.5,30S18.4,3.5,33,3.5S59.5,15.4,59.5,30S47.6,56.5,33,56.5z"/>
	<path id="XMLID_18_" class="st0" d="M26.3,37.3c-1-0.9-2.3-1.5-3.8-1.5c-3.2,0-5.7,2.5-5.7,5.7c0,3.2,2.5,5.7,5.7,5.7
		s5.7-2.5,5.7-5.7V24.1l15.9-4v12.5c-1-0.9-2.3-1.5-3.8-1.5c-3.1,0-5.7,2.5-5.7,5.7s2.5,5.7,5.7,5.7S46,40,46,36.8V13.3l-19.7,5
		V37.3z M22.6,45.3c-2.1,0-3.8-1.7-3.8-3.8c0-2.2,1.7-3.8,3.8-3.8s3.8,1.7,3.8,3.8C26.4,43.6,24.7,45.3,22.6,45.3z M40.4,40.6
		c-2.1,0-3.8-1.7-3.8-3.8c0-2.2,1.7-3.8,3.8-3.8c2.2,0,3.8,1.7,3.8,3.8C44.2,38.9,42.4,40.6,40.4,40.6z M44.2,15.7V18l-16,4.1v-2.3
		L44.2,15.7z"/>
</g>
</svg>
