<?xml version="1.0" encoding="utf-8"?>
<!-- Generator: Adobe Illustrator 19.0.0, SVG Export Plug-In . SVG Version: 6.00 Build 0)  -->
<svg version="1.0" id="copy__x26__graphics" xmlns="http://www.w3.org/2000/svg" xmlns:xlink="http://www.w3.org/1999/xlink"
	 x="0px" y="0px" viewBox="0 0 796.7 187.9" enable-background="new 0 0 796.7 187.9" xml:space="preserve">
<g id="XMLID_180_">
	<g id="XMLID_205_">
		<g id="XMLID_735_">
			<path id="XMLID_740_" fill="#FFFFFF" d="M117.7,183.6v-43.7c0-2.3,1.8-4.1,4.1-4.1h0.1c0,0,0,0,0.1,0h24c2.1,0,4.1,1.8,4.1,4.1
				c0,2.3-1.9,4.2-4.1,4.2h-20.1v13.6H138c2.2,0,4.1,1.9,4.1,4.1c0,2.3-1.9,4.2-4.1,4.2h-12.1v13.6H146c2.1,0,4.1,1.9,4.1,4.1
				c0,2.2-1.9,4.1-4.1,4.1h-24c-0.1,0-0.1-0.1-0.1-0.1l-0.1,0.1C119.4,187.7,117.7,185.8,117.7,183.6z"/>
			<path id="XMLID_738_" fill="#FFFFFF" d="M174.2,183.6c0,2.2-1.8,4.1-4,4.1c-2.3,0-4.1-1.9-4.1-4.1v-43c0,0,0,0,0-0.1
				c-0.1-1.3,0.5-2.6,1.6-3.4c1.9-1.3,4.4-0.9,5.6,0.9l23.9,33.1v-30.5c0-2.1,1.8-4,4-4c2.2,0,4.1,1.9,4.1,4v43
				c0,2.2-1.9,4.1-4.1,4.1c-1.2,0-2.3-0.6-3-1.5c-0.1-0.1-0.3-0.3-0.4-0.4l-23.7-32.9V183.6z"/>
			<path id="XMLID_737_" fill="#FFFFFF" d="M20.5,135.8c-10.3,2-18.5,10.5-20.2,20.8c-2.1,12.5,4.9,23.7,15.4,28.1
				c2.4,1,5-0.9,5-3.5v0c0-1.5-0.8-2.8-2.2-3.4c-7.5-3.2-12.5-11.2-10.9-20.2c1.3-7.1,6.9-12.9,14-14.4C33.6,140.7,44,149.6,44,161
				c0,7.7-4.8,14.2-11.5,16.9c-1.4,0.6-2.2,1.9-2.2,3.4l0,0c0,2.7,2.8,4.5,5.3,3.4c9.3-3.9,15.8-13,15.8-23.7
				C51.4,145.1,37,132.6,20.5,135.8z"/>
			<path id="XMLID_736_" fill="#FFFFFF" d="M105.2,152.5c0-9.1-7.4-16.6-16.5-16.6l0,0H75.8h-1.1h-0.5h-0.1c-2.2,0-4.1,1.8-4.1,4.1
				v43.7c0,2.2,1.9,4.1,4.1,4.1c2.3,0,4.1-1.9,4.1-4.1v-14.5h0v-8.2v-2.7v-14.2h10.4v0c4.6,0,8.3,3.8,8.3,8.4c0,4.1-3,7.6-6.9,8.3
				c0,0-1.6,0.3-2.5,1.4c-0.6,0.7-1,1.7-1,2.7c0,2.1,1.8,4.1,4.1,4.1l0,0C98.8,167.9,105.2,161,105.2,152.5z"/>
		</g>
		<g id="XMLID_666_">
			<path id="XMLID_733_" fill="#FFFFFF" d="M387.8,183.6c0,2.2-1.8,4.1-4,4.1c-2.3,0-4.1-1.9-4.1-4.1v-43c0,0,0,0,0-0.1
				c-0.1-1.3,0.5-2.6,1.6-3.4c1.9-1.3,4.4-0.9,5.6,0.9l23.9,33.1v-30.5c0-2.1,1.8-4,4-4c2.2,0,4.1,1.9,4.1,4v43
				c0,2.2-1.9,4.1-4.1,4.1c-1.2,0-2.3-0.6-3-1.5c-0.1-0.1-0.3-0.3-0.4-0.4l-23.7-32.9V183.6z"/>
			<path id="XMLID_731_" fill="#FFFFFF" d="M439.6,174.8c1.3-1.6,3.8-1.9,5.4-0.5c3.3,2.7,8.9,5.8,14.1,5.7c3.7,0,7-1.1,9.3-2.7
				c2.2-1.6,3.2-3.5,3.2-5.3c0-1-0.2-1.6-0.7-2.4c-0.4-0.7-1.1-1.5-2.2-2.2c-2.1-1.4-5.8-2.7-10.1-3.5h-0.1
				c-3.5-0.7-6.7-1.6-9.6-2.9c-2.8-1.3-5.3-3.2-6.9-5.8c-1.1-1.8-1.7-3.9-1.7-6.1c0-4.4,2.5-8.3,5.9-10.8c3.5-2.5,8-3.9,12.8-3.9
				c7.1,0,12.4,3.5,16.1,5.9c1.7,1.2,2.2,3.6,1,5.3c-1.1,1.8-3.5,2.3-5.3,1.1c-3.8-2.5-7.4-4.7-11.9-4.7c-3.3,0-6.3,1-8.3,2.5
				c-2,1.5-2.8,3.1-2.8,4.7c0,0.9,0.1,1.5,0.5,2.1c0.4,0.6,1,1.3,2,1.9c1.9,1.3,5.3,2.5,9.3,3.3h0.1c3.8,0.7,7.3,1.7,10.2,3.1
				c3,1.5,5.7,3.4,7.4,6.1c1.1,1.8,1.8,4,1.8,6.3c0,4.7-2.7,8.8-6.4,11.5c-3.6,2.7-8.4,4.2-13.7,4.2c-8-0.1-14.7-4.1-19-7.4
				C438.6,178.8,438.3,176.4,439.6,174.8z"/>
			<path id="XMLID_729_" fill="#FFFFFF" d="M643.4,144h-11.8v39.5c0,2.3-1.8,4.1-4.1,4.1c-2.2,0-4.1-1.8-4.1-4.1V144h-11.7
				c-2.3,0-4.1-1.9-4.1-4.2c0-2.3,1.8-4.1,4.1-4.1h31.6c2.2,0,4.1,1.8,4.1,4.1C647.4,142.1,645.6,144,643.4,144z"/>
			<path id="XMLID_727_" fill="#FFFFFF" d="M664.6,139.9c0-2.3,1.8-4.1,4.1-4.1c2.2,0,4.1,1.8,4.1,4.1v43.7c0,2.3-1.9,4.1-4.1,4.1
				c-2.3,0-4.1-1.8-4.1-4.1V139.9z"/>
			<path id="XMLID_725_" fill="#FFFFFF" d="M712.6,187.7c-11.9,0-21.4-9.6-21.4-21.4v-26.4c0-2.3,1.8-4.1,4.1-4.1
				c2.2,0,4.1,1.8,4.1,4.1v26.4c0,7.3,5.9,13.2,13.2,13.2c7.3,0,13.2-5.9,13.2-13.2v-26.4c0-2.3,1.9-4.1,4.1-4.1
				c2.3,0,4.1,1.8,4.1,4.1v26.4C734,178,724.4,187.7,712.6,187.7z"/>
			<path id="XMLID_723_" fill="#FFFFFF" d="M796.7,139.9v43.7c0,2.2-1.9,4.1-4.1,4.1c-2.3,0-4.1-1.9-4.1-4.1v-31.2l-10.7,14.8
				c-0.8,1.1-2,1.7-3.3,1.7h-0.1h-0.1c-1.3,0-2.6-0.6-3.4-1.7l-10.6-14.8v31.2c0,2.2-1.9,4.1-4.1,4.1c-2.2,0-4.1-1.9-4.1-4.1v-43.7
				c0-2.2,1.9-4.1,4.1-4.1c0.1,0,0.1,0,0.2,0c1.2,0,2.5,0.6,3.3,1.7l14.7,20.4l14.7-20.4c0.8-1.1,2-1.7,3.3-1.7c0,0,0,0,0.1,0
				C794.8,135.9,796.7,137.7,796.7,139.9z"/>
			<path id="XMLID_722_" fill="#FFFFFF" d="M251.3,166.2c2.1,10.6,11,18.9,21.6,20.3c9.2,1.2,17.6-2.4,23-8.7
				c2.1-2.5,0.4-6.3-2.8-6.3h0c-1.1,0-2.2,0.6-2.9,1.4c-4,4.6-10.1,7.2-16.9,6.1c-7.2-1.2-13.1-6.9-14.6-14
				c-2.5-11.8,6.5-22.2,17.8-22.2c5.5,0,10.4,2.5,13.7,6.3c0.8,0.9,1.8,1.4,3,1.4h0c3.1,0,5-3.7,3-6c-4.7-5.6-11.7-9.2-19.6-9.2
				C260.6,135.3,248.1,149.7,251.3,166.2z"/>
			<path id="XMLID_721_" fill="#FFFFFF" d="M589.1,168.8c-0.5-0.8-0.2-1.9,0.6-2.4c4.3-3,7.2-8,7.2-13.6c0-9.1-7.4-16.6-16.5-16.6
				l0,0h-12.9h-1.1h-0.5h-0.1c-2.2,0-4.1,1.8-4.1,4.1v43.7c0,2.2,1.9,4.1,4.1,4.1c2.3,0,4.1-1.9,4.1-4.1v-14.5h0v-8.2v-2.7v-14.2
				h10.4v0c4.6,0,8.3,3.8,8.3,8.4c0,3.4-2,6.3-4.9,7.7c-0.6,0.3-2.8,0.7-3.5,1.2c-1.3,0.8-2,2.1-2,3.5c0,0,0,0,0,0.1c0,0,0,0,0,0
				c0,0.7,0.1,1.4,0.5,2l10.5,18.7c0.8,1.3,2.1,2.1,3.6,2.1c0.7,0,1.4-0.2,2-0.5c2-1.1,2.6-3.6,1.5-5.6L589.1,168.8z"/>
			<path id="XMLID_720_" fill="#FFFFFF" d="M332.1,135.8c-10.3,2-18.5,10.5-20.2,20.8c-2.1,12.5,4.9,23.7,15.4,28.1
				c2.4,1,5-0.9,5-3.5v0c0-1.5-0.8-2.8-2.2-3.4c-7.5-3.2-12.5-11.2-10.9-20.2c1.3-7.1,6.9-12.9,14-14.4c11.8-2.5,22.2,6.5,22.2,17.8
				c0,7.7-4.8,14.2-11.5,16.9c-1.4,0.6-2.2,1.9-2.2,3.4l0,0c0,2.7,2.8,4.5,5.3,3.4c9.3-3.9,15.8-13,15.8-23.7
				C363,145.1,348.6,132.6,332.1,135.8z"/>
			<path id="XMLID_719_" fill="#FFFFFF" d="M512.9,135.8c-10.3,2-18.5,10.5-20.2,20.8c-2.1,12.5,4.9,23.7,15.4,28.1
				c2.4,1,5-0.9,5-3.5v0c0-1.5-0.8-2.8-2.2-3.4c-7.5-3.2-12.5-11.2-10.9-20.2c1.3-7.1,6.9-12.9,14-14.4c11.8-2.5,22.2,6.5,22.2,17.8
				c0,7.7-4.8,14.2-11.5,16.9c-1.4,0.6-2.2,1.9-2.2,3.4l0,0c0,2.7,2.8,4.5,5.3,3.4c9.3-3.9,15.8-13,15.8-23.7
				C543.8,145.1,529.4,132.6,512.9,135.8z"/>
		</g>
	</g>
	<g id="XMLID_181_">
		<g id="XMLID_187_">
			<path id="XMLID_189_" fill="#FFFFFF" d="M433.7,77c-4.1,8.6-10.7,15.7-19.1,20.6c-7.4,4.3-15.5,6.4-23.8,6.4
				c-4.2,0-8.3-0.5-12.5-1.7c-12.3-3.3-22.6-11.2-29-22.3c-13.2-22.8-5.3-52.1,17.5-65.3c8.6-4.9,18.2-7.1,27.9-6.2l2.2-8.1
				c-11.4-1.3-23.3,0.9-34,7c-27,15.4-36.3,49.7-21,76.6c15.4,26.9,49.7,36.3,76.6,21c10.7-6.1,18.6-15.3,23.3-25.8L433.7,77z"/>
			<path id="XMLID_188_" fill="#FFFFFF" d="M374.7,28.1c5-2.8,10.4-4.2,15.7-4.2l2.2-8.1c-0.7,0-1.3-0.1-2-0.1
				c-6.8,0-13.8,1.7-20.1,5.4c-19.3,11.1-25.9,35.9-14.8,55.2c5.4,9.3,14.1,16,24.5,18.8c10.4,2.8,21.3,1.4,30.6-4
				c6.7-3.9,12-9.5,15.5-16.2l-8.1-2.2c-2.8,4.6-6.7,8.6-11.6,11.4c-15.5,8.8-35.2,3.4-44-12C353.8,56.7,359.2,37,374.7,28.1z"/>
		</g>
		<path id="XMLID_184_" fill="#FFFFFF" d="M418.6,40.2c2,3.5,3.2,7.2,3.8,10.9c6,0.5,13.9-1.6,23.1-6.8c17.4-10,16.7-29,16.7-29
			s-16-10.3-33.4-0.4c-9.2,5.3-15,11-17.6,16.4C414.1,33.7,416.7,36.7,418.6,40.2z M441.7,20.1c2.9-1.6,6.5-0.6,8.1,2.2
			c1.6,2.9,0.6,6.5-2.2,8.1c-2.9,1.6-6.5,0.6-8.1-2.2C437.8,25.4,438.8,21.8,441.7,20.1z"/>
		<path id="XMLID_183_" fill="#FFFFFF" d="M422.6,18.9c-7.5-0.6-16.2,1.3-24.4,6c3.7,0.9,7.2,2.5,10.4,4.6
			C411.2,26.3,415.6,22.8,422.6,18.9z"/>
		<path id="XMLID_182_" fill="#FFFFFF" d="M439,47.6c-6,3.4-11.4,6-16.2,6.7c0.2,3.8-0.2,7.7-1.3,11.3
			C429.6,60.8,435.7,54.3,439,47.6z"/>
	</g>
</g>
</svg>
