<?xml version="1.0" encoding="utf-8"?>
<!-- Generator: Adobe Illustrator 19.0.0, SVG Export Plug-In . SVG Version: 6.00 Build 0)  -->
<svg version="1.0" id="Layer_1" xmlns="http://www.w3.org/2000/svg" xmlns:xlink="http://www.w3.org/1999/xlink" x="0px" y="0px"
	 viewBox="0 0 10.6 9.3" enable-background="new 0 0 10.6 9.3" xml:space="preserve">
<g id="XMLID_17_">
	<g id="XMLID_2_">
		<g id="XMLID_34_">
			<path id="XMLID_36_" fill="#FFFFFF" d="M8.2,6.4C7.9,7.1,7.3,7.7,6.6,8.1C6,8.4,5.4,8.6,4.7,8.6c-0.3,0-0.7,0-1-0.1
				c-1-0.3-1.9-0.9-2.4-1.8C0.1,4.7,0.8,2.3,2.7,1.2C3.4,0.8,4.2,0.6,5,0.7L5.2,0C4.2-0.1,3.2,0.1,2.4,0.6C0.1,1.9-0.7,4.7,0.6,7
				S4.7,10,7,8.7c0.9-0.5,1.5-1.3,1.9-2.1L8.2,6.4z"/>
			<path id="XMLID_35_" fill="#FFFFFF" d="M3.3,2.3C3.7,2.1,4.2,2,4.6,2l0.2-0.7c-0.1,0-0.1,0-0.2,0C4.1,1.3,3.5,1.5,3,1.8
				c-1.6,0.9-2.2,3-1.2,4.6c0.4,0.8,1.2,1.3,2,1.6C4.7,8.1,5.6,8,6.3,7.6c0.6-0.3,1-0.8,1.3-1.3L7,6C6.7,6.4,6.4,6.7,6,7
				C4.7,7.7,3.1,7.3,2.3,6C1.6,4.7,2.1,3.1,3.3,2.3z"/>
		</g>
		<path id="XMLID_19_" fill="#FFFFFF" d="M7,3.3c0.2,0.3,0.3,0.6,0.3,0.9c0.5,0,1.2-0.1,1.9-0.6c1.4-0.8,1.4-2.4,1.4-2.4
			s-1.3-0.9-2.8,0C7.1,1.7,6.6,2.1,6.4,2.6C6.6,2.8,6.8,3,7,3.3z M8.9,1.7c0.2-0.1,0.5-0.1,0.7,0.2c0.1,0.2,0.1,0.5-0.2,0.7
			C9.1,2.7,8.8,2.6,8.7,2.3C8.6,2.1,8.7,1.8,8.9,1.7z"/>
		<path id="XMLID_15_" fill="#FFFFFF" d="M7.3,1.6C6.7,1.5,6,1.7,5.3,2.1c0.3,0.1,0.6,0.2,0.9,0.4C6.4,2.2,6.7,1.9,7.3,1.6z"/>
		<path id="XMLID_12_" fill="#FFFFFF" d="M8.7,3.9C8.2,4.2,7.7,4.4,7.3,4.5c0,0.3,0,0.6-0.1,0.9C7.9,5,8.4,4.5,8.7,3.9z"/>
	</g>
</g>
</svg>
