<?xml version="1.0" encoding="utf-8"?>
<!-- Generator: Adobe Illustrator 19.0.0, SVG Export Plug-In . SVG Version: 6.00 Build 0)  -->
<svg version="1.1" id="copy__x26__graphics" xmlns="http://www.w3.org/2000/svg" xmlns:xlink="http://www.w3.org/1999/xlink"
	 x="0px" y="0px" viewBox="390 -85.9 796.7 187.9" style="enable-background:new 390 -85.9 796.7 187.9;" xml:space="preserve">
<style type="text/css">
	.st0{fill:#FFFFFF;}
</style>
<g id="XMLID_180_">
	<g id="XMLID_205_">
		<g id="XMLID_735_">
			<path id="XMLID_740_" class="st0" d="M509.5,96.5V52.9c0-2.3,1.8-4.1,4.1-4.1h0.1c0,0,0,0,0.1,0h24c2.1,0,4.1,1.8,4.1,4.1
				c0,2.3-1.9,4.2-4.1,4.2h-20.1v13.6h12.1c2.2,0,4.1,1.9,4.1,4.1c0,2.3-1.9,4.2-4.1,4.2h-12.1v13.6h20.1c2.1,0,4.1,1.9,4.1,4.1
				c0,2.2-1.9,4.1-4.1,4.1h-24c-0.1,0-0.1-0.1-0.1-0.1l-0.1,0.1C511.2,100.6,509.5,98.7,509.5,96.5z"/>
			<path id="XMLID_738_" class="st0" d="M566,96.5c0,2.2-1.8,4.1-4,4.1c-2.3,0-4.1-1.9-4.1-4.1v-43c0,0,0,0,0-0.1
				c-0.1-1.3,0.5-2.6,1.6-3.4c1.9-1.3,4.4-0.9,5.6,0.9L589,84.1V53.6c0-2.1,1.8-4,4-4s4.1,1.9,4.1,4v43c0,2.2-1.9,4.1-4.1,4.1
				c-1.2,0-2.3-0.6-3-1.5c-0.1-0.1-0.3-0.3-0.4-0.4l-23.7-32.9L566,96.5L566,96.5z"/>
			<path id="XMLID_737_" class="st0" d="M410.6,48.8c-10.9,2.1-19.6,11.1-21.4,22c-2.2,13.2,5.2,25.1,16.3,29.7
				c2.5,1.1,5.3-1,5.3-3.7l0,0c0-1.6-0.8-3-2.3-3.6c-7.9-3.4-13.2-11.9-11.5-21.4c1.4-7.5,7.3-13.7,14.8-15.2
				c12.7-2.6,23.7,6.8,23.7,18.8c0,8.2-5.1,15-12.2,17.9c-1.5,0.6-2.3,2-2.3,3.6l0,0c0,2.9,3,4.8,5.6,3.6
				c9.8-4.1,16.7-13.8,16.7-25.1C443.3,58.7,428.1,45.4,410.6,48.8z"/>
			<path id="XMLID_69_" class="st0" d="M723.3,48.8c-10.9,2.1-19.6,11.1-21.4,22c-2.2,13.2,5.2,25.1,16.3,29.7
				c2.5,1.1,5.3-1,5.3-3.7l0,0c0-1.6-0.8-3-2.3-3.6c-7.9-3.4-13.2-11.9-11.5-21.4c1.4-7.5,7.3-13.7,14.8-15.2
				c12.7-2.6,23.7,6.8,23.7,18.8c0,8.2-5.1,15-12.2,17.9c-1.5,0.6-2.3,2-2.3,3.6l0,0c0,2.9,3,4.8,5.6,3.6
				c9.8-4.1,16.7-13.8,16.7-25.1C756,58.7,740.8,45.4,723.3,48.8z"/>
			<path id="XMLID_70_" class="st0" d="M904,48.8c-10.9,2.1-19.6,11.1-21.4,22c-2.2,13.2,5.2,25.1,16.3,29.7c2.5,1.1,5.3-1,5.3-3.7
				l0,0c0-1.6-0.8-3-2.3-3.6c-7.9-3.4-13.2-11.9-11.5-21.4c1.4-7.5,7.3-13.7,14.8-15.2c12.7-2.6,23.7,6.8,23.7,18.8
				c0,8.2-5.1,15-12.2,17.9c-1.5,0.6-2.3,2-2.3,3.6l0,0c0,2.9,3,4.8,5.6,3.6c9.8-4.1,16.7-13.8,16.7-25.1
				C936.7,58.7,921.4,45.4,904,48.8z"/>
			<path id="XMLID_736_" class="st0" d="M497.1,65.5c0-9.1-7.4-16.6-16.5-16.6l0,0h-12.9h-1.1h-0.5H466c-2.2,0-4.1,1.8-4.1,4.1v43.7
				c0,2.2,1.9,4.1,4.1,4.1c2.3,0,4.1-1.9,4.1-4.1V82.2l0,0V74v-2.7V57.1h10.4l0,0c4.6,0,8.3,3.8,8.3,8.4c0,4.1-3,7.6-6.9,8.3
				c0,0-1.6,0.3-2.5,1.4c-0.6,0.7-1,1.7-1,2.7c0,2.1,1.8,4.1,4.1,4.1l0,0C490.7,80.9,497.1,74,497.1,65.5z"/>
		</g>
		<g id="XMLID_666_">
			<path id="XMLID_733_" class="st0" d="M779.4,96.5c0,2.2-1.8,4.1-4,4.1c-2.3,0-4.1-1.9-4.1-4.1v-43c0,0,0,0,0-0.1
				c-0.1-1.3,0.5-2.6,1.6-3.4c1.9-1.3,4.4-0.9,5.6,0.9l23.9,33.1V53.6c0-2.1,1.8-4,4-4s4.1,1.9,4.1,4v43c0,2.2-1.9,4.1-4.1,4.1
				c-1.2,0-2.3-0.6-3-1.5c-0.1-0.1-0.3-0.3-0.4-0.4l-23.7-32.9L779.4,96.5L779.4,96.5z"/>
			<path id="XMLID_731_" class="st0" d="M831.1,87.7c1.3-1.6,3.8-1.9,5.4-0.5c3.3,2.7,8.9,5.8,14.1,5.7c3.7,0,7-1.1,9.3-2.7
				c2.2-1.6,3.2-3.5,3.2-5.3c0-1-0.2-1.6-0.7-2.4c-0.4-0.7-1.1-1.5-2.2-2.2c-2.1-1.4-5.8-2.7-10.1-3.5H850c-3.5-0.7-6.7-1.6-9.6-2.9
				c-2.8-1.3-5.3-3.2-6.9-5.8c-1.1-1.8-1.7-3.9-1.7-6.1c0-4.4,2.5-8.3,5.9-10.8c3.5-2.5,8-3.9,12.8-3.9c7.1,0,12.4,3.5,16.1,5.9
				c1.7,1.2,2.2,3.6,1,5.3c-1.1,1.8-3.5,2.3-5.3,1.1c-3.8-2.5-7.4-4.7-11.9-4.7c-3.3,0-6.3,1-8.3,2.5c-2,1.5-2.8,3.1-2.8,4.7
				c0,0.9,0.1,1.5,0.5,2.1s1,1.3,2,1.9c1.9,1.3,5.3,2.5,9.3,3.3h0.1c3.8,0.7,7.3,1.7,10.2,3.1c3,1.5,5.7,3.4,7.4,6.1
				c1.1,1.8,1.8,4,1.8,6.3c0,4.7-2.7,8.8-6.4,11.5c-3.6,2.7-8.4,4.2-13.7,4.2c-8-0.1-14.7-4.1-19-7.4
				C830.1,91.7,829.8,89.3,831.1,87.7z"/>
			<path id="XMLID_729_" class="st0" d="M1034.7,57h-11.8v39.5c0,2.3-1.8,4.1-4.1,4.1c-2.2,0-4.1-1.8-4.1-4.1V57h-11.7
				c-2.3,0-4.1-1.9-4.1-4.2s1.8-4.1,4.1-4.1h31.6c2.2,0,4.1,1.8,4.1,4.1S1036.9,57,1034.7,57z"/>
			<path id="XMLID_727_" class="st0" d="M1055.9,52.9c0-2.3,1.8-4.1,4.1-4.1c2.2,0,4.1,1.8,4.1,4.1v43.7c0,2.3-1.9,4.1-4.1,4.1
				c-2.3,0-4.1-1.8-4.1-4.1V52.9z"/>
			<path id="XMLID_725_" class="st0" d="M1103.9,100.6c-11.9,0-21.4-9.6-21.4-21.4V52.9c0-2.3,1.8-4.1,4.1-4.1
				c2.2,0,4.1,1.8,4.1,4.1v26.4c0,7.3,5.9,13.2,13.2,13.2c7.3,0,13.2-5.9,13.2-13.2V52.9c0-2.3,1.9-4.1,4.1-4.1
				c2.3,0,4.1,1.8,4.1,4.1v26.4C1125.2,90.9,1115.7,100.6,1103.9,100.6z"/>
			<path id="XMLID_723_" class="st0" d="M1187.9,52.9v43.7c0,2.2-1.9,4.1-4.1,4.1c-2.3,0-4.1-1.9-4.1-4.1V65.4L1169,80.2
				c-0.8,1.1-2,1.7-3.3,1.7h-0.1h-0.1c-1.3,0-2.6-0.6-3.4-1.7l-10.6-14.8v31.2c0,2.2-1.9,4.1-4.1,4.1c-2.2,0-4.1-1.9-4.1-4.1V52.9
				c0-2.2,1.9-4.1,4.1-4.1c0.1,0,0.1,0,0.2,0c1.2,0,2.5,0.6,3.3,1.7l14.7,20.4l14.7-20.4c0.8-1.1,2-1.7,3.3-1.7c0,0,0,0,0.1,0
				C1186,48.9,1187.9,50.7,1187.9,52.9z"/>
			<path id="XMLID_722_" class="st0" d="M643,79.2c2.1,10.6,11,18.9,21.6,20.3c9.2,1.2,17.6-2.4,23-8.7c2.1-2.5,0.4-6.3-2.8-6.3l0,0
				c-1.1,0-2.2,0.6-2.9,1.4c-4,4.6-10.1,7.2-16.9,6.1c-7.2-1.2-13.1-6.9-14.6-14c-2.5-11.8,6.5-22.2,17.8-22.2
				c5.5,0,10.4,2.5,13.7,6.3c0.8,0.9,1.8,1.4,3,1.4l0,0c3.1,0,5-3.7,3-6c-4.7-5.6-11.7-9.2-19.6-9.2C652.3,48.3,639.8,62.7,643,79.2
				z"/>
			<path id="XMLID_721_" class="st0" d="M980.5,81.8c-0.5-0.8-0.2-1.9,0.6-2.4c4.3-3,7.2-8,7.2-13.6c0-9.1-7.4-16.6-16.5-16.6l0,0
				h-12.9h-1.1h-0.5h-0.1c-2.2,0-4.1,1.8-4.1,4.1v43.7c0,2.2,1.9,4.1,4.1,4.1c2.3,0,4.1-1.9,4.1-4.1V82.5l0,0v-8.2v-2.7V57.4h10.4
				l0,0c4.6,0,8.3,3.8,8.3,8.4c0,3.4-2,6.3-4.9,7.7c-0.6,0.3-2.8,0.7-3.5,1.2c-1.3,0.8-2,2.1-2,3.5c0,0,0,0,0,0.1l0,0
				c0,0.7,0.1,1.4,0.5,2l10.5,18.7c0.8,1.3,2.1,2.1,3.6,2.1c0.7,0,1.4-0.2,2-0.5c2-1.1,2.6-3.6,1.5-5.6L980.5,81.8z"/>
		</g>
	</g>
	<g id="XMLID_181_">
		<g id="XMLID_187_">
			<path id="XMLID_189_" class="st0" d="M825.2-8c-4.1,8.6-10.7,15.7-19.1,20.6c-7.4,4.3-15.5,6.4-23.8,6.4c-4.2,0-8.3-0.5-12.5-1.7
				c-12.3-3.3-22.6-11.2-29-22.3c-13.2-22.8-5.3-52,17.5-65.2c8.6-4.9,18.2-7.1,27.9-6.2l2.2-8.1c-11.4-1.3-23.3,0.9-34,7
				c-27,15.4-36.3,49.7-21,76.5c15.4,26.9,49.7,36.3,76.5,21c10.7-6.1,18.6-15.3,23.3-25.8L825.2-8z"/>
			<path id="XMLID_188_" class="st0" d="M766.3-56.9c5-2.8,10.4-4.2,15.7-4.2l2.2-8.1c-0.7,0-1.3-0.1-2-0.1
				c-6.8,0-13.8,1.7-20.1,5.4C742.8-52.8,736.2-28,747.3-8.7c5.4,9.3,14.1,16,24.5,18.8s21.3,1.4,30.6-4c6.7-3.9,12-9.5,15.5-16.2
				l-8.1-2.2C807-7.7,803.1-3.8,798.2-1c-15.5,8.8-35.2,3.4-44-12C745.4-28.3,750.8-48,766.3-56.9z"/>
		</g>
		<path id="XMLID_184_" class="st0" d="M810.1-44.8c2,3.5,3.2,7.2,3.8,10.9c6,0.5,13.9-1.6,23.1-6.8c17.4-10,16.7-29,16.7-29
			s-16-10.3-33.4-0.4c-9.2,5.3-15,11-17.6,16.4C805.7-51.3,808.3-48.3,810.1-44.8z M833.2-64.9c2.9-1.6,6.5-0.6,8.1,2.2
			c1.6,2.9,0.6,6.5-2.2,8.1c-2.9,1.6-6.5,0.6-8.1-2.2C829.3-59.6,830.3-63.2,833.2-64.9z"/>
		<path id="XMLID_183_" class="st0" d="M814.1-66.1c-7.5-0.6-16.2,1.3-24.4,6c3.7,0.9,7.2,2.5,10.4,4.6
			C802.8-58.7,807.2-62.2,814.1-66.1z"/>
		<path id="XMLID_182_" class="st0" d="M830.5-37.4c-6,3.4-11.4,6-16.2,6.7c0.2,3.8-0.2,7.7-1.3,11.3
			C821.1-24.2,827.2-30.7,830.5-37.4z"/>
	</g>
</g>
</svg>
