<?xml version="1.0" encoding="utf-8"?>
<!-- Generator: Adobe Illustrator 19.0.0, SVG Export Plug-In . SVG Version: 6.00 Build 0)  -->
<svg version="1.0" id="Layer_1" xmlns="http://www.w3.org/2000/svg" xmlns:xlink="http://www.w3.org/1999/xlink" x="0px" y="0px"
	 viewBox="0 0 95 9.3" enable-background="new 0 0 95 9.3" xml:space="preserve">
<g id="XMLID_17_">
	<g id="XMLID_49_">
		<g id="XMLID_315_">
			<path id="XMLID_320_" fill="#FFFFFF" d="M12.2,6.9V2.4c0-0.2,0.2-0.4,0.4-0.4h0c0,0,0,0,0,0h2.5c0.2,0,0.4,0.2,0.4,0.4
				c0,0.2-0.2,0.4-0.4,0.4H13v1.4h1.3c0.2,0,0.4,0.2,0.4,0.4c0,0.2-0.2,0.4-0.4,0.4H13v1.4h2.1c0.2,0,0.4,0.2,0.4,0.4
				c0,0.2-0.2,0.4-0.4,0.4h-2.5c0,0,0,0,0,0l0,0C12.4,7.3,12.2,7.2,12.2,6.9z"/>
			<path id="XMLID_318_" fill="#FFFFFF" d="M18,6.9c0,0.2-0.2,0.4-0.4,0.4c-0.2,0-0.4-0.2-0.4-0.4V2.5c0,0,0,0,0,0
				c0-0.1,0.1-0.3,0.2-0.4C17.5,2,17.8,2,17.9,2.2l2.5,3.4V2.5c0-0.2,0.2-0.4,0.4-0.4c0.2,0,0.4,0.2,0.4,0.4v4.5
				c0,0.2-0.2,0.4-0.4,0.4c-0.1,0-0.2-0.1-0.3-0.2c0,0,0,0,0,0L18,3.7V6.9z"/>
			<path id="XMLID_317_" fill="#FFFFFF" d="M2.1,2C1.1,2.2,0.2,3.1,0,4.1C-0.2,5.4,0.5,6.6,1.6,7c0.2,0.1,0.5-0.1,0.5-0.4v0
				c0-0.2-0.1-0.3-0.2-0.4C1.1,6,0.6,5.2,0.8,4.2c0.1-0.7,0.7-1.3,1.4-1.5c1.2-0.3,2.3,0.7,2.3,1.8c0,0.8-0.5,1.5-1.2,1.7
				C3.2,6.4,3.1,6.5,3.1,6.7v0C3.1,7,3.4,7.2,3.7,7c1-0.4,1.6-1.3,1.6-2.5C5.3,2.9,3.8,1.6,2.1,2z"/>
			<path id="XMLID_316_" fill="#FFFFFF" d="M10.9,3.7c0-0.9-0.8-1.7-1.7-1.7l0,0H7.8H7.7H7.7h0C7.4,2,7.2,2.2,7.2,2.4v4.5
				c0,0.2,0.2,0.4,0.4,0.4c0.2,0,0.4-0.2,0.4-0.4V5.4h0V4.6V4.3V2.8h1.1v0c0.5,0,0.9,0.4,0.9,0.9c0,0.4-0.3,0.8-0.7,0.9
				c0,0-0.2,0-0.3,0.1C9,4.8,9,4.9,9,5c0,0.2,0.2,0.4,0.4,0.4l0,0C10.2,5.3,10.9,4.6,10.9,3.7z"/>
		</g>
		<g id="XMLID_51_">
			<path id="XMLID_313_" fill="#FFFFFF" d="M40.1,6.9c0,0.2-0.2,0.4-0.4,0.4c-0.2,0-0.4-0.2-0.4-0.4V2.5c0,0,0,0,0,0
				c0-0.1,0.1-0.3,0.2-0.4C39.6,2,39.9,2,40,2.2l2.5,3.4V2.5c0-0.2,0.2-0.4,0.4-0.4c0.2,0,0.4,0.2,0.4,0.4v4.5
				c0,0.2-0.2,0.4-0.4,0.4c-0.1,0-0.2-0.1-0.3-0.2c0,0,0,0,0,0l-2.5-3.4V6.9z"/>
			<path id="XMLID_311_" fill="#FFFFFF" d="M45.5,6C45.6,5.8,45.9,5.8,46,6c0.3,0.3,0.9,0.6,1.5,0.6c0.4,0,0.7-0.1,1-0.3
				c0.2-0.2,0.3-0.4,0.3-0.6c0-0.1,0-0.2-0.1-0.2c0-0.1-0.1-0.2-0.2-0.2c-0.2-0.1-0.6-0.3-1-0.4h0c-0.4-0.1-0.7-0.2-1-0.3
				c-0.3-0.1-0.5-0.3-0.7-0.6c-0.1-0.2-0.2-0.4-0.2-0.6c0-0.5,0.3-0.9,0.6-1.1C46.5,2,47,1.8,47.5,1.8c0.7,0,1.3,0.4,1.7,0.6
				c0.2,0.1,0.2,0.4,0.1,0.5c-0.1,0.2-0.4,0.2-0.5,0.1c-0.4-0.3-0.8-0.5-1.2-0.5c-0.3,0-0.7,0.1-0.9,0.3c-0.2,0.2-0.3,0.3-0.3,0.5
				c0,0.1,0,0.2,0.1,0.2c0,0.1,0.1,0.1,0.2,0.2c0.2,0.1,0.5,0.3,1,0.3h0c0.4,0.1,0.8,0.2,1.1,0.3c0.3,0.2,0.6,0.4,0.8,0.6
				c0.1,0.2,0.2,0.4,0.2,0.7c0,0.5-0.3,0.9-0.7,1.2c-0.4,0.3-0.9,0.4-1.4,0.4c-0.8,0-1.5-0.4-2-0.8C45.4,6.4,45.3,6.2,45.5,6z"/>
			<path id="XMLID_309_" fill="#FFFFFF" d="M66.6,2.8h-1.2v4.1c0,0.2-0.2,0.4-0.4,0.4c-0.2,0-0.4-0.2-0.4-0.4V2.8h-1.2
				c-0.2,0-0.4-0.2-0.4-0.4C62.9,2.2,63,2,63.3,2h3.3C66.8,2,67,2.2,67,2.4C67,2.6,66.8,2.8,66.6,2.8z"/>
			<path id="XMLID_307_" fill="#FFFFFF" d="M68.8,2.4c0-0.2,0.2-0.4,0.4-0.4c0.2,0,0.4,0.2,0.4,0.4v4.5c0,0.2-0.2,0.4-0.4,0.4
				c-0.2,0-0.4-0.2-0.4-0.4V2.4z"/>
			<path id="XMLID_305_" fill="#FFFFFF" d="M73.7,7.3c-1.2,0-2.2-1-2.2-2.2V2.4c0-0.2,0.2-0.4,0.4-0.4c0.2,0,0.4,0.2,0.4,0.4v2.7
				c0,0.8,0.6,1.4,1.4,1.4c0.8,0,1.4-0.6,1.4-1.4V2.4c0-0.2,0.2-0.4,0.4-0.4c0.2,0,0.4,0.2,0.4,0.4v2.7C75.9,6.3,74.9,7.3,73.7,7.3z
				"/>
			<path id="XMLID_303_" fill="#FFFFFF" d="M82.4,2.4v4.5c0,0.2-0.2,0.4-0.4,0.4c-0.2,0-0.4-0.2-0.4-0.4V3.7l-1.1,1.5
				c-0.1,0.1-0.2,0.2-0.3,0.2h0h0c-0.1,0-0.3-0.1-0.4-0.2l-1.1-1.5v3.2c0,0.2-0.2,0.4-0.4,0.4c-0.2,0-0.4-0.2-0.4-0.4V2.4
				C77.8,2.2,78,2,78.2,2c0,0,0,0,0,0c0.1,0,0.3,0.1,0.3,0.2l1.5,2.1l1.5-2.1C81.7,2,81.8,2,82,2c0,0,0,0,0,0
				C82.2,2,82.4,2.2,82.4,2.4z"/>
			<path id="XMLID_302_" fill="#FFFFFF" d="M26,5.1c0.2,1.1,1.1,2,2.2,2.1c1,0.1,1.8-0.2,2.4-0.9c0.2-0.3,0-0.6-0.3-0.6h0
				c-0.1,0-0.2,0.1-0.3,0.1c-0.4,0.5-1,0.7-1.7,0.6c-0.7-0.1-1.4-0.7-1.5-1.4c-0.3-1.2,0.7-2.3,1.8-2.3c0.6,0,1.1,0.3,1.4,0.7
				c0.1,0.1,0.2,0.1,0.3,0.1h0c0.3,0,0.5-0.4,0.3-0.6c-0.5-0.6-1.2-0.9-2-0.9C27,1.9,25.7,3.4,26,5.1z"/>
			<path id="XMLID_301_" fill="#FFFFFF" d="M60.9,5.4c0-0.1,0-0.2,0.1-0.3c0.4-0.3,0.7-0.8,0.7-1.4C61.8,2.8,61,2,60,2l0,0h-1.3
				h-0.1h-0.1h0c-0.2,0-0.4,0.2-0.4,0.4v4.5c0,0.2,0.2,0.4,0.4,0.4c0.2,0,0.4-0.2,0.4-0.4V5.4h0V4.6V4.3V2.9H60v0
				c0.5,0,0.9,0.4,0.9,0.9c0,0.4-0.2,0.7-0.5,0.8c-0.1,0-0.3,0.1-0.4,0.1c-0.1,0.1-0.2,0.2-0.2,0.4c0,0,0,0,0,0l0,0
				c0,0.1,0,0.1,0,0.2L61,7.2c0.1,0.1,0.2,0.2,0.4,0.2c0.1,0,0.1,0,0.2-0.1c0.2-0.1,0.3-0.4,0.2-0.6L60.9,5.4z"/>
			<path id="XMLID_300_" fill="#FFFFFF" d="M34.4,2c-1.1,0.2-1.9,1.1-2.1,2.2c-0.2,1.3,0.5,2.5,1.6,2.9c0.2,0.1,0.5-0.1,0.5-0.4v0
				c0-0.2-0.1-0.3-0.2-0.4C33.4,6,32.9,5.2,33,4.2c0.1-0.7,0.7-1.3,1.4-1.5c1.2-0.3,2.3,0.7,2.3,1.8c0,0.8-0.5,1.5-1.2,1.7
				c-0.1,0.1-0.2,0.2-0.2,0.4v0c0,0.3,0.3,0.5,0.6,0.4c1-0.4,1.6-1.3,1.6-2.5C37.6,2.9,36.1,1.6,34.4,2z"/>
			<path id="XMLID_299_" fill="#FFFFFF" d="M53.1,2C52,2.2,51.1,3.1,51,4.1c-0.2,1.3,0.5,2.5,1.6,2.9c0.2,0.1,0.5-0.1,0.5-0.4v0
				c0-0.2-0.1-0.3-0.2-0.4c-0.8-0.3-1.3-1.2-1.1-2.1c0.1-0.7,0.7-1.3,1.4-1.5c1.2-0.3,2.3,0.7,2.3,1.8c0,0.8-0.5,1.5-1.2,1.7
				c-0.1,0.1-0.2,0.2-0.2,0.4v0c0,0.3,0.3,0.5,0.6,0.4c1-0.4,1.6-1.3,1.6-2.5C56.3,2.9,54.8,1.6,53.1,2z"/>
		</g>
	</g>
	<g id="XMLID_2_">
		<g id="XMLID_34_">
			<path id="XMLID_36_" fill="#FFFFFF" d="M92.6,6.4c-0.3,0.7-0.9,1.3-1.6,1.7c-0.6,0.4-1.3,0.5-2,0.5c-0.3,0-0.7,0-1-0.1
				c-1-0.3-1.9-0.9-2.4-1.8c-1.1-1.9-0.4-4.3,1.5-5.4c0.7-0.4,1.5-0.6,2.3-0.5L89.6,0c-0.9-0.1-1.9,0.1-2.8,0.6
				c-2.2,1.3-3,4.1-1.7,6.4c1.3,2.2,4.1,3,6.4,1.7c0.9-0.5,1.5-1.3,1.9-2.1L92.6,6.4z"/>
			<path id="XMLID_35_" fill="#FFFFFF" d="M87.7,2.3C88.1,2.1,88.6,2,89,2l0.2-0.7c-0.1,0-0.1,0-0.2,0c-0.6,0-1.1,0.1-1.7,0.4
				c-1.6,0.9-2.2,3-1.2,4.6c0.4,0.8,1.2,1.3,2,1.6C89.1,8.1,90,8,90.7,7.6c0.6-0.3,1-0.8,1.3-1.3L91.4,6c-0.2,0.4-0.6,0.7-1,0.9
				c-1.3,0.7-2.9,0.3-3.6-1C86,4.7,86.5,3.1,87.7,2.3z"/>
		</g>
		<path id="XMLID_19_" fill="#FFFFFF" d="M91.4,3.3c0.2,0.3,0.3,0.6,0.3,0.9c0.5,0,1.2-0.1,1.9-0.6C95.1,2.8,95,1.3,95,1.3
			s-1.3-0.9-2.8,0c-0.8,0.4-1.2,0.9-1.5,1.4C91,2.8,91.2,3,91.4,3.3z M93.3,1.7c0.2-0.1,0.5-0.1,0.7,0.2c0.1,0.2,0.1,0.5-0.2,0.7
			c-0.2,0.1-0.5,0.1-0.7-0.2C93,2.1,93.1,1.8,93.3,1.7z"/>
		<path id="XMLID_15_" fill="#FFFFFF" d="M91.7,1.6c-0.6-0.1-1.3,0.1-2,0.5c0.3,0.1,0.6,0.2,0.9,0.4C90.8,2.2,91.1,1.9,91.7,1.6z"/>
		<path id="XMLID_12_" fill="#FFFFFF" d="M93.1,3.9c-0.5,0.3-0.9,0.5-1.3,0.6c0,0.3,0,0.6-0.1,0.9C92.3,5,92.8,4.5,93.1,3.9z"/>
	</g>
</g>
</svg>
